<svg width="435" height="166" viewBox="0 0 435 166" fill="none" xmlns="http://www.w3.org/2000/svg">
<path d="M100.12 128V34.56H117.4V88.32L142.36 61.44H166.936L135.576 92.416L167.064 128H144.152L117.4 96.384V128H100.12ZM193.456 129.664C187.397 129.664 181.851 128.128 176.816 125.056C171.867 121.899 167.899 117.717 164.912 112.512C162.011 107.221 160.56 101.376 160.56 94.976C160.56 90.1973 161.413 85.7173 163.12 81.536C164.827 77.2693 167.173 73.5573 170.16 70.4C173.147 67.1573 176.603 64.64 180.528 62.848C184.539 60.9707 188.848 60.032 193.456 60.032C199.259 60.032 203.781 61.1413 207.024 63.36C210.267 65.4933 212.784 68.352 214.576 71.936V61.44H231.728V128H214.96V117.12C213.168 120.875 210.608 123.904 207.28 126.208C204.037 128.512 199.429 129.664 193.456 129.664ZM196.272 114.048C200.112 114.048 203.397 113.195 206.128 111.488C208.944 109.696 211.12 107.349 212.656 104.448C214.192 101.547 214.96 98.3893 214.96 94.976C214.96 91.4773 214.192 88.2773 212.656 85.376C211.12 82.4747 208.944 80.128 206.128 78.336C203.397 76.544 200.112 75.648 196.272 75.648C192.603 75.648 189.36 76.544 186.544 78.336C183.813 80.0427 181.68 82.3467 180.144 85.248C178.608 88.1493 177.84 91.3493 177.84 94.848C177.84 98.176 178.608 101.333 180.144 104.32C181.68 107.221 183.813 109.568 186.544 111.36C189.36 113.152 192.603 114.048 196.272 114.048ZM250.571 55.936C247.67 55.936 245.195 54.9547 243.147 52.992C241.184 50.944 240.203 48.512 240.203 45.696C240.203 42.9653 241.184 40.6187 243.147 38.656C245.195 36.608 247.67 35.584 250.571 35.584C253.558 35.584 256.032 36.608 257.995 38.656C259.958 40.6187 260.939 42.9653 260.939 45.696C260.939 48.5973 259.958 51.0293 257.995 52.992C256.032 54.9547 253.558 55.936 250.571 55.936ZM241.995 128V61.44H259.275V128H241.995ZM269.495 128V61.44H286.263V74.112C287.372 69.3333 289.634 65.7067 293.047 63.232C296.46 60.672 301.068 59.5627 306.871 59.904V76.16H304.439C299.49 76.16 295.308 77.7387 291.895 80.896C288.482 84.0533 286.775 88.4053 286.775 93.952V128H269.495ZM337.324 129.536C332.545 129.536 328.236 128.427 324.396 126.208C320.556 123.989 317.527 120.832 315.308 116.736C313.089 112.555 311.98 107.691 311.98 102.144V61.44H329.26V97.92C329.26 103.637 330.412 107.819 332.716 110.464C335.02 113.109 338.305 114.432 342.572 114.432C346.241 114.432 349.441 113.109 352.172 110.464C354.988 107.819 356.396 103.637 356.396 97.92V61.44H373.676V128H356.908V118.016C355.287 121.856 352.897 124.757 349.74 126.72C346.668 128.597 342.529 129.536 337.324 129.536ZM406.654 129.664C395.475 129.664 386.259 125.781 379.006 118.016L390.654 107.392C395.518 112.853 400.723 115.584 406.27 115.584C409.257 115.584 411.518 114.944 413.054 113.664C414.675 112.299 415.486 110.635 415.486 108.672C415.486 107.477 415.187 106.453 414.59 105.6C414.078 104.747 412.926 103.936 411.134 103.168C409.427 102.4 406.825 101.632 403.326 100.864C397.353 99.4133 392.915 97.6213 390.014 95.488C387.113 93.3547 385.193 90.9653 384.254 88.32C383.315 85.6747 382.846 82.944 382.846 80.128C382.846 74.3253 385.022 69.504 389.374 65.664C393.811 61.7387 399.913 59.776 407.678 59.776C413.054 59.776 417.662 60.5867 421.502 62.208C425.342 63.8293 428.969 66.8587 432.382 71.296L419.838 80.896C418.217 78.336 416.382 76.5013 414.334 75.392C412.371 74.2827 410.281 73.728 408.062 73.728C405.673 73.728 403.667 74.1973 402.046 75.136C400.51 76.0747 399.742 77.568 399.742 79.616C399.742 80.7253 400.254 81.8347 401.278 82.944C402.302 83.968 404.777 84.992 408.702 86.016C415.187 87.6373 420.137 89.5573 423.55 91.776C426.963 93.9093 429.31 96.3413 430.59 99.072C431.87 101.803 432.51 104.832 432.51 108.16C432.51 112.256 431.358 115.925 429.054 119.168C426.835 122.411 423.763 124.971 419.838 126.848C415.998 128.725 411.603 129.664 406.654 129.664Z" fill="#F35800"/>
<path d="M46.5833 47.1667L10.75 90.1667H43L39.4167 118.833L75.25 75.8334H43L46.5833 47.1667Z" fill="#F35800" stroke="#F35800" stroke-width="3.41667" stroke-linecap="round" stroke-linejoin="round"/>
</svg>
