<svg xmlns="http://www.w3.org/2000/svg" width="58" height="32" fill="none"><g clip-path="url(#a)"><path fill="#131313" d="M57.995 11.381a.5.5 0 0 0 0-.134.4.4 0 0 0 0-.11l-.43-3.128A2.04 2.04 0 0 0 57.088 7l-.074-.085-.134-.134L49.44.426l.209.207a1.78 1.78 0 0 0-1.4-.633h-2.258a1.64 1.64 0 0 0-1.019.329A1.78 1.78 0 0 0 43.917 0h-2.259a1.69 1.69 0 0 0-1.473.816c-.233.36-.32.795-.245 1.217l.282 1.972a1.24 1.24 0 0 0-.614-.158H28.672a2.06 2.06 0 0 0-1.105.328c-.318.198-.573.48-.736.816l-.847-.718a1.76 1.76 0 0 0-1.228-.463H7.596a2.3 2.3 0 0 0-1.116.317 2.05 2.05 0 0 0-.946 1.217L.084 23.419a1.57 1.57 0 0 0 .467 1.704q.094.078.196.146s-.11-.073-.172-.134l7.439 6.366c.314.287.726.448 1.154.45h17.294c.395-.01.78-.123 1.117-.328.19-.104.361-.24.504-.402l.06-.085.1-.122.073-.134.81.694c.31.276.712.428 1.13.426h17.33a2.3 2.3 0 0 0 1.118-.329q.28-.165.503-.401l.061-.085.099-.122a1.6 1.6 0 0 0 .135-.244q.06-.11.098-.23l4.97-16.506v-.146a1 1 0 0 0 0-.17v-.11a.3.3 0 0 0 0-.11 2 2 0 0 0 0-.23h1.597q.208.018.417 0h.11q.136-.04.258-.11h.123l.22-.17.099-.074.172-.219v-.073l.123-.207a.4.4 0 0 1 0-.121.1.1 0 0 1 0-.061q.039-.108.061-.22a.2.2 0 0 1 0-.072.3.3 0 0 1 0-.11s.245-.475.245-.499"/><path fill="#DCDCDC" d="M25.26 5.198a.425.425 0 0 1 .11.474l-5.438 18.063a.84.84 0 0 1-.392.463c-.15.1-.324.158-.504.17H1.754a.6.6 0 0 1-.393-.17.425.425 0 0 1-.11-.463L6.7 5.672a.84.84 0 0 1 .38-.474c.152-.093.325-.147.503-.159h17.283a.58.58 0 0 1 .392.159Zm-9.022 14.898L19.49 9.312h-9.107l-3.24 10.784zM41.756 5.38a.6.6 0 0 0 .479.207h2.246a.51.51 0 0 0 .43-.231.5.5 0 0 0 .086-.39l-.442-3.213a1 1 0 0 0-.221-.402.6.6 0 0 0-.479-.206H41.61a.51.51 0 0 0-.43.23c-.086.171-.122.28-.086.378l.455 3.213a.74.74 0 0 0 .208.414Zm7.132-3.651a1 1 0 0 0-.221-.402.58.58 0 0 0-.467-.207h-2.258a.47.47 0 0 0-.417.231.5.5 0 0 0-.099.378l.454 3.213a.8.8 0 0 0 .21.414.63.63 0 0 0 .478.207h2.258a.48.48 0 0 0 .418-.231.46.46 0 0 0 .086-.39zM39.78 6.597l-.22-1.582H28.671a.96.96 0 0 0-.479.158.71.71 0 0 0-.356.475l-.908 3.019a.41.41 0 0 0 .073.462.6.6 0 0 0 .38.158h13.233l-3.253 10.785H24.167a.93.93 0 0 0-.479.146.83.83 0 0 0-.356.474l-.92 3.02a.45.45 0 0 0 .086.462c.1.102.236.163.38.17H40.21c.179-.015.352-.074.503-.17a.82.82 0 0 0 .38-.463l4.984-16.505h-5.61a.66.66 0 0 1-.478-.195.9.9 0 0 1-.209-.39z"/></g><defs><clipPath id="a"><path fill="#fff" d="M0 0h58v32H0z"/></clipPath></defs></svg>