<svg xmlns="http://www.w3.org/2000/svg" width="117" height="37" fill="none"><path fill="#FF4D00" d="M.24 28 11.68 0h4.84l11.4 28h-6.08l-1.92-5.32H8.24L6.32 28zm12.84-17.8-3 7.64h8l-3-7.64a30 30 0 0 1-1-3.2 21.4 21.4 0 0 1-1 3.2m25.03 26.32q-3.159 0-5.64-.88-2.439-.84-4.32-3.04l3.36-3.96q1.48 1.68 3.08 2.28t3.56.6q1.44 0 2.68-.72t1.96-2.04q.76-1.28.76-2.92v-.92a6.45 6.45 0 0 1-2.32 2.32q-1.44.88-3.96.88-2.84 0-5.16-1.44-2.28-1.44-3.6-3.84-1.32-2.44-1.32-5.44t1.32-5.44 3.6-3.84q2.32-1.44 5.16-1.44 2.6 0 4.04.92a6.57 6.57 0 0 1 2.32 2.44V7.2h5.32v18.96q0 3.2-1.4 5.52-1.36 2.32-3.8 3.56-2.439 1.28-5.64 1.28m.04-13.32q2.68 0 4.16-1.68t1.48-4.12-1.48-4.12-4.16-1.68q-2.64 0-4.12 1.68-1.44 1.68-1.44 4.12 0 1.56.64 2.88a5.45 5.45 0 0 0 1.92 2.12q1.24.8 3 .8m23.941 5.32q-3.2 0-5.64-1.48t-3.8-3.92q-1.32-2.48-1.32-5.48t1.4-5.48q1.4-2.52 3.8-4 2.44-1.48 5.56-1.48t5.48 1.48q2.4 1.48 3.72 4 1.36 2.48 1.36 5.48 0 .44-.04.92-.039.48-.12 1h-15.56q.44 1.84 1.76 3 1.36 1.16 3.4 1.16 1.76 0 3.04-.8 1.32-.8 2.04-2l4.2 3.16q-1.239 1.96-3.72 3.2t-5.56 1.24m-.08-17.2q-1.92 0-3.28 1.16t-1.8 3.04h10.28q-.44-1.72-1.84-2.96-1.359-1.24-3.36-1.24M75.021 28V7.2h5.24v3.96q.522-2.24 2.12-3.4 1.6-1.2 4.32-1.04v5.08h-.76q-2.32 0-3.92 1.48t-1.6 4.08V28zm22.742.52q-3.2 0-5.72-1.48t-3.96-3.92q-1.4-2.48-1.4-5.48t1.4-5.48q1.44-2.48 3.96-3.96t5.72-1.48q3.24 0 5.72 1.48 2.52 1.48 3.92 3.96 1.44 2.48 1.44 5.48t-1.44 5.48q-1.4 2.44-3.92 3.92-2.48 1.48-5.72 1.48m0-4.92q1.719 0 3-.8a5.6 5.6 0 0 0 1.96-2.2q.72-1.36.72-2.96 0-1.64-.72-3a5.3 5.3 0 0 0-1.96-2.16q-1.281-.84-3-.84t-3 .84a5.6 5.6 0 0 0-2 2.16q-.68 1.36-.68 3a6.5 6.5 0 0 0 .68 2.96 5.9 5.9 0 0 0 2 2.2q1.28.8 3 .8m15.569 4.92q-1.56 0-2.6-1.04-1-1.04-1-2.48 0-1.4 1-2.44 1.04-1.04 2.6-1.04c1.56 0 1.893.347 2.56 1.04q1 1.04 1 2.44 0 1.44-1 2.48t-2.56 1.04"/></svg>