<svg xmlns="http://www.w3.org/2000/svg" width="64" height="64" fill="none"><rect width="64" height="64" fill="#FF4D00" rx="14.222"/><path fill="#fff" d="M12 47.416 24.94 16h5.475L43.31 47.416h-6.877l-2.172-5.969H21.049l-2.172 5.97zm14.524-19.971-3.394 8.572h9.05l-3.394-8.572a33 33 0 0 1-1.131-3.59 24 24 0 0 1-1.131 3.59M47.973 48q-1.765 0-2.94-1.167-1.132-1.167-1.132-2.782 0-1.572 1.131-2.738 1.176-1.167 2.941-1.167t2.896 1.167C52 42.48 52 43.003 52 44.05q0 1.617-1.131 2.783C49.738 47.999 49.149 48 47.973 48"/></svg>