<svg xmlns="http://www.w3.org/2000/svg" width="127" height="32" fill="none"><path fill="#131313" d="M3.139 29.68h27.374V2.32H3.14v27.36Zm22.105-16.313H19.46v-5.78h5.784zM8.407 7.587h5.787v11.046h11.05v5.78H8.407zM48.339 2.32a13.69 13.69 0 0 0-12.645 8.445 13.67 13.67 0 0 0 2.967 14.908A13.689 13.689 0 0 0 62.026 16a13.7 13.7 0 0 0-4.014-9.669A13.7 13.7 0 0 0 48.34 2.32Zm0 22.094a8.42 8.42 0 0 1-7.777-5.194 8.41 8.41 0 0 1 1.824-9.17A8.42 8.42 0 0 1 56.757 16a8.425 8.425 0 0 1-8.418 8.414M111.005 2.32a13.69 13.69 0 0 0-12.646 8.444 13.67 13.67 0 0 0 2.967 14.909A13.689 13.689 0 0 0 124.692 16a13.7 13.7 0 0 0-13.687-13.68m0 22.094a8.42 8.42 0 0 1-7.778-5.194 8.41 8.41 0 0 1 1.824-9.17 8.425 8.425 0 0 1 9.174-1.824A8.415 8.415 0 0 1 119.423 16a8.43 8.43 0 0 1-8.418 8.414M79.672 2.32a13.69 13.69 0 0 0-12.646 8.445 13.67 13.67 0 0 0 2.967 14.908A13.69 13.69 0 0 0 93.36 16a13.7 13.7 0 0 0-4.014-9.669 13.7 13.7 0 0 0-9.673-4.011Zm0 22.094a8.42 8.42 0 0 1-7.5-4.584 8.41 8.41 0 0 1 4.253-11.595 8.42 8.42 0 0 1 11.238 5.132h-7.991v5.265h7.991a8.43 8.43 0 0 1-7.991 5.782"/></svg>