<svg xmlns="http://www.w3.org/2000/svg" width="162" height="32" fill="none"><g fill="#131313" clip-path="url(#a)"><path fill-rule="evenodd" d="M20.495 9.348A8.03 8.03 0 0 0 16.04 8V0c3.172 0 6.273.938 8.91 2.696a16 16 0 0 1 5.908 7.181 15.96 15.96 0 0 1-3.477 17.437 16.05 16.05 0 0 1-8.212 4.379 16.1 16.1 0 0 1-9.268-.91 16.03 16.03 0 0 1-7.198-5.894A15.97 15.97 0 0 1 0 16h8.02a8 8 0 0 0 1.351 4.445 8 8 0 0 0 3.6 2.946 8.04 8.04 0 0 0 8.74-1.734 7.98 7.98 0 0 0 1.738-8.718 8 8 0 0 0-2.954-3.59Z" clip-rule="evenodd"/><path fill-rule="evenodd" d="M8.02 0a7.98 7.98 0 0 1-2.35 5.657A8.02 8.02 0 0 1 0 8v8a16.07 16.07 0 0 0 11.342-4.686A15.97 15.97 0 0 0 16.04 0z" clip-rule="evenodd"/><path d="M100.744 11.562h-3.891v12.33h3.891zm-3.458-2.309q.61.61 1.525.61t1.501-.61q.585-.634.585-1.522 0-.913-.585-1.522t-1.5-.609q-.917 0-1.526.609-.586.609-.586 1.522 0 .888.586 1.522m-56.26 14.639V5.98h3.993v14.41h7.96v3.5H41.027Z"/><path fill-rule="evenodd" d="M60.17 24.17q-1.907 0-3.458-.836A6.5 6.5 0 0 1 54.295 21q-.89-1.471-.89-3.299 0-1.826.89-3.272a6.4 6.4 0 0 1 2.417-2.284q1.526-.862 3.458-.862 1.934 0 3.46.837a6.33 6.33 0 0 1 2.416 2.309q.89 1.446.89 3.272 0 1.827-.89 3.299a6.5 6.5 0 0 1-2.417 2.334q-1.526.837-3.459.837Zm0-3.526q.84 0 1.476-.355.635-.38.966-1.04.356-.686.356-1.547 0-.864-.356-1.497a2.5 2.5 0 0 0-.992-1.015q-.61-.38-1.45-.38a2.77 2.77 0 0 0-1.45.38 2.5 2.5 0 0 0-.991 1.015q-.356.66-.356 1.522 0 .837.356 1.522.356.66.992 1.04a2.9 2.9 0 0 0 1.45.355Zm9.847 8.068q1.552.71 3.587.71 1.983 0 3.535-.786 1.551-.786 2.441-2.182t.89-3.298V11.562h-3.815v.828a4.1 4.1 0 0 0-.966-.6q-.992-.482-2.263-.482-1.704 0-3.027.812a5.6 5.6 0 0 0-2.086 2.182q-.763 1.37-.763 3.095 0 1.7.763 3.095A5.8 5.8 0 0 0 70.4 22.7q1.323.813 3.026.812 1.247 0 2.264-.482a4.5 4.5 0 0 0 .89-.55v.779q0 1.293-.84 2.004-.813.71-2.263.71-1.17 0-2.009-.406-.813-.405-1.475-1.192l-2.39 2.385q.89 1.268 2.415 1.953Zm5.545-9.006q-.585.354-1.399.355c-.814.001-1.017-.119-1.424-.355a2.5 2.5 0 0 1-.916-.964 2.9 2.9 0 0 1-.33-1.345q0-.76.33-1.37.33-.609.941-.964a2.73 2.73 0 0 1 1.399-.355q.814 0 1.399.355.61.355.915.964.33.61.331 1.37 0 .761-.33 1.37-.306.584-.916.939M88.66 24.17q-1.908 0-3.46-.836A6.5 6.5 0 0 1 82.785 21q-.89-1.471-.89-3.299 0-1.826.89-3.272a6.4 6.4 0 0 1 2.417-2.284q1.525-.862 3.459-.862 1.932 0 3.458.837a6.33 6.33 0 0 1 2.416 2.309q.89 1.446.89 3.272 0 1.827-.89 3.299a6.5 6.5 0 0 1-2.416 2.334q-1.526.837-3.458.837Zm0-3.526q.838 0 1.475-.355.635-.38.966-1.04.356-.686.356-1.547 0-.864-.356-1.497a2.5 2.5 0 0 0-.992-1.015q-.61-.38-1.45-.38-.813 0-1.45.38a2.5 2.5 0 0 0-.991 1.015q-.356.66-.356 1.522 0 .837.356 1.522.355.66.992 1.04a2.9 2.9 0 0 0 1.45.355m21.437 3.501a5.4 5.4 0 0 1-2.289-.482 5 5 0 0 1-.991-.605v6.035h-3.841V11.562h3.891v.85a4.8 4.8 0 0 1 .941-.596 5.16 5.16 0 0 1 2.289-.508q1.755 0 3.102.838a5.8 5.8 0 0 1 2.137 2.283q.788 1.446.788 3.298t-.788 3.298a5.8 5.8 0 0 1-2.137 2.283q-1.347.837-3.102.837m-.712-3.5q.84 0 1.449-.381.637-.38.992-1.04.357-.66.357-1.497 0-.862-.357-1.522a2.5 2.5 0 0 0-.992-1.015q-.61-.38-1.424-.38t-1.449.38a2.54 2.54 0 0 0-.966 1.015q-.357.66-.357 1.522 0 .837.331 1.497.356.66.992 1.04.635.38 1.424.38Z" clip-rule="evenodd"/><path d="M119.933 23.917a8.5 8.5 0 0 0 2.161.28q2.315 0 3.663-1.066 1.373-1.065 1.373-2.867 0-1.167-.432-1.877a3.36 3.36 0 0 0-1.119-1.168 6.7 6.7 0 0 0-1.45-.684q-.764-.254-1.449-.432a5.3 5.3 0 0 1-1.12-.406q-.432-.228-.432-.609 0-.355.33-.532.331-.203.992-.203.687 0 1.399.279.738.279 1.322.964l2.213-2.233q-.838-1.065-2.187-1.598-1.322-.558-2.899-.558-1.5 0-2.619.507t-1.73 1.396q-.61.862-.61 2.055 0 1.116.432 1.852.432.71 1.119 1.116.686.405 1.45.634l1.449.431q.687.178 1.119.432.459.228.458.685 0 .354-.382.558-.355.203-1.042.203a4.6 4.6 0 0 1-1.831-.355 4.5 4.5 0 0 1-1.45-1.04l-2.213 2.232q.637.686 1.526 1.218.916.507 1.959.786m14.293.253q-1.704 0-3.026-.684a5.3 5.3 0 0 1-2.035-1.928q-.738-1.243-.738-2.842v-7.154h3.892v7.104q0 .634.203 1.09.23.458.661.71.433.255 1.043.255.864 0 1.374-.533.508-.559.508-1.522v-7.104h3.891v7.129q0 1.623-.738 2.867a5.3 5.3 0 0 1-2.034 1.928q-1.297.685-3.001.685Zm11.599-12.608h-3.891v12.33h3.891v-7.205q0-.634.254-1.066.28-.43.738-.66a2.1 2.1 0 0 1 1.042-.253q.84 0 1.399.533.586.507.586 1.446v7.205h3.891v-7.205q0-.634.254-1.066.28-.43.738-.66a2.1 2.1 0 0 1 1.042-.253q.84 0 1.399.533.585.507.585 1.446v7.205h3.892v-7.637q0-1.546-.662-2.638a4.24 4.24 0 0 0-1.755-1.7q-1.093-.609-2.518-.609-1.45 0-2.619.635-.76.404-1.329 1.043a4.3 4.3 0 0 0-1.291-1.094q-1.017-.585-2.314-.584-1.374 0-2.467.584a4.3 4.3 0 0 0-.865.581z"/></g><defs><clipPath id="a"><path fill="#fff" d="M0 0h162v32H0z"/></clipPath></defs></svg>