<svg xmlns="http://www.w3.org/2000/svg" width="167" height="32" fill="none"><g fill="#131313" clip-path="url(#a)"><path d="M77.391 3.201c-.258 1.834.932 3.202 2.785 3.202A3.724 3.724 0 0 0 83.862 3.2C84.12 1.367 82.93 0 81.077 0a3.72 3.72 0 0 0-3.686 3.201m.047 4.702-1.59 11.303 5.082-.195 1.562-11.108z"/><path fill-rule="evenodd" d="M64.088 24.81c4.01 0 7.418-2.133 9.122-5.365l2.59.106-.68 4.825h5.056l.65-4.62 2.68.11-1.625 11.547h5.056l1.242-8.837c.838 1.467 2.416 2.234 4.404 2.234 2.689 0 5.845-1.387 7.731-4.257l1.936.079c.33 2.494 2.656 4.178 6.345 4.178 4.279 0 7.429-2.267 7.908-5.669.549-3.901-3.036-4.535-5.382-4.868l-.204-.032c-1.419-.216-2.501-.38-2.367-1.336.094-.667.689-1.3 1.935-1.3 1.012 0 1.625.433 1.652 1.2h4.92c.316-2.968-1.912-5.335-6.057-5.335s-7.136 2.334-7.605 5.669c-.558 3.968 3.137 4.535 5.381 4.868l.124.02.173.025h.001c1.373.207 2.409.362 2.264 1.39-.098.7-.679 1.233-2.229 1.233-1.382 0-1.961-.433-1.873-1.3l-35.777-.001 1.824-.07c.49-.968.83-2.032.99-3.164.703-5.002-2.488-8.67-7.746-8.67l-.243.002.016-.01H50.363a45 45 0 0 0-.648 0h.648c4.093.027 11.892.546 10.889 1.39a9.95 9.95 0 0 0-4.908 7.288c-.704 5.002 2.487 8.67 7.744 8.67m.657-4.668c2.292 0 4.072-1.634 4.405-4.002s-.988-4.002-3.28-4.002c-2.29 0-4.07 1.634-4.404 4.002s.987 4.002 3.279 4.002" clip-rule="evenodd"/><path d="M96.768 16.14a4.9 4.9 0 0 1-.93 2.3l5.591-.214c.192-.588.34-1.216.434-1.886.745-5.302-2.46-8.87-7.75-8.87-5.09 0-9.328 3.301-10.107 8.837l-.365 2.6 5.857-.224c-.4-.67-.554-1.541-.413-2.543.333-2.368 2.113-4.002 4.405-4.002 2.291 0 3.611 1.634 3.278 4.002m39.434 5.705.947-6.739c.747-5.302 4.175-7.636 8.219-7.636 2.359 0 4.221.9 5.224 2.634 1.491-1.734 3.572-2.634 5.965-2.634 4.044 0 6.816 2.334 6.071 7.636l-1.304 9.27h-5.056l1.304-9.27c.31-2.2-.661-2.968-2.177-2.968-1.483 0-2.669.767-2.979 2.968l-1.304 9.27h-5.055l1.304-9.27c.309-2.2-.661-2.968-2.144-2.968-1.516 0-2.703.767-3.012 2.968l-1.304 9.27h-3.029l.001.002h-7.083c2.939-.297 5.197-1.1 5.407-2.54z"/><path d="M125.417 24.81c-4.921 0-7.829-2.801-7.046-8.37l.885-6.292c.142-1.625-1.139-1.828-3.964-2.235h4.278l.002-.01h5.056l-1.201 8.537c-.366 2.6.759 3.701 2.647 3.701s3.322-1.1 3.688-3.701l1.201-8.537h5.055l-1.201 8.537c-.778 5.535-4.48 8.37-9.4 8.37m-86.09-2.383a6.6 6.6 0 0 1-.921-1.292l-3.61-.196c-1.867 2.379-4.799 3.871-8.152 3.871-5.258 0-8.449-3.668-7.745-8.67s4.926-8.67 10.184-8.67 8.448 3.668 7.745 8.67a10.1 10.1 0 0 1-1.005 3.193l-6.502.332c1.266-.65 2.158-1.919 2.384-3.525.333-2.368-.987-4.002-3.279-4.002s-4.072 1.634-4.405 4.002c-.249 1.772.428 3.133 1.746 3.706l-5.705.291h26.085v.003c2.232-.058 3.953-1.675 4.28-4 .333-2.368-.987-4.002-3.279-4.002s-4.071 1.634-4.404 4.002c-.16 1.14.062 2.11.593 2.81l-5.631.287c-.206-.95-.24-1.991-.085-3.097.704-5.002 4.927-8.67 10.184-8.67s8.448 3.668 7.745 8.67c-.68 4.832-4.643 8.419-9.65 8.657 1.179.664 2.892 1.2 4.15 1.594.42.132.79.248 1.073.347 1.143.282 1.874 1.336 1.697 2.594C52.612 30.805 51.237 32 49.748 32h-8.09c-2.644 0-4.58-1.883-4.69-4.368l-9.978-.967h10.026v-.002h8.626c-1.972-.754-4.056-2.264-5.397-3.404a6.7 6.7 0 0 1-.917-.831zM0 2.568l4.13.656-2.976 21.152h15.873l.704-5.002H7.317L9.681 2.568zm167 3.734a1.925 1.925 0 1 1-3.85-.001 1.925 1.925 0 0 1 3.85 0Z"/></g><defs><clipPath id="a"><path fill="#fff" d="M0 0h167v32H0z"/></clipPath></defs></svg>